# xmcd CD database file
#
# Track frame offsets:
#	150
#	25291
#	56707
#	79944
#	114135
#	138287
#	172010
#	190620
#	220299
#
# Disc length: 3226 seconds
#
# Revision: 0
# Processed by: cddbd v1.5.2PL0 Copyright (c) Steve Scherf et al.
# Submitted via: CDex 1.70beta3
#
DISCID=770c9809
DTITLE=Akiyoshi Toshiko - Porgy and Bess
DYEAR=2015
DGENRE=Jazz
TTITLE0=Summertime
TTITLE1=I Got Plenty O' Nuttin'
TTITLE2=I Love You, Porgy
TTITLE3=My Man's Gone Now
TTITLE4=A Woman is a Sometime Thing
TTITLE5=It Ain't Necessarily So
TTITLE6=Bess, You is My Woman Now
TTITLE7=Bess, O Where's My Bess
TTITLE8=A Red-haired Woman
EXTD=YEAR: 2015
EXTT0=
EXTT1=
EXTT2=
EXTT3=
EXTT4=
EXTT5=
EXTT6=
EXTT7=
EXTT8=
PLAYORDER=
